<svg width="11" height="18" viewBox="0 0 11 18" fill="none" xmlns="http://www.w3.org/2000/svg">
<path fill-rule="evenodd" clip-rule="evenodd" d="M4.3798 1.60445C5.24716 0.737092 6.42354 0.249817 7.65017 0.249817H10.1252C10.4013 0.249817 10.6252 0.473675 10.6252 0.749817V4.04982C10.6252 4.32596 10.4013 4.54982 10.1252 4.54982H7.65017C7.56398 4.54982 7.48131 4.58406 7.42036 4.64501C7.35941 4.70596 7.32517 4.78862 7.32517 4.87482V6.84982H10.1252C10.2791 6.84982 10.4245 6.92075 10.5193 7.04211C10.614 7.16347 10.6476 7.32171 10.6102 7.47108L9.78524 10.7711C9.7296 10.9937 9.5296 11.1498 9.30017 11.1498H7.32517V17.2498C7.32517 17.526 7.10131 17.7498 6.82517 17.7498H3.52517C3.24903 17.7498 3.02517 17.526 3.02517 17.2498V11.1498H1.05017C0.774029 11.1498 0.550171 10.926 0.550171 10.6498V7.34982C0.550171 7.07367 0.774029 6.84982 1.05017 6.84982H3.02517V4.87482C3.02517 3.64819 3.51245 2.4718 4.3798 1.60445ZM7.65017 1.24982C6.68876 1.24982 5.76673 1.63174 5.08691 2.31155C4.40709 2.99137 4.02517 3.91341 4.02517 4.87482V7.34982C4.02517 7.62596 3.80131 7.84982 3.52517 7.84982H1.55017V10.1498H3.52517C3.80131 10.1498 4.02517 10.3737 4.02517 10.6498V16.7498H6.32517V10.6498C6.32517 10.3737 6.54903 10.1498 6.82517 10.1498H8.90978L9.48478 7.84982H6.82517C6.54903 7.84982 6.32517 7.62596 6.32517 7.34982V4.87482C6.32517 4.5234 6.46477 4.18639 6.71325 3.9379C6.96174 3.68941 7.29876 3.54982 7.65017 3.54982H9.62517V1.24982H7.65017Z" fill="white"/>
</svg>
