<svg width="19" height="16" viewBox="0 0 19 16" fill="none" xmlns="http://www.w3.org/2000/svg">
<path fill-rule="evenodd" clip-rule="evenodd" d="M3.15 2C2.79478 2 2.5 2.29478 2.5 2.65V12.55C2.5 12.9052 2.79478 13.2 3.15 13.2H16.35C16.7052 13.2 17 12.9052 17 12.55V2.65C17 2.29478 16.7052 2 16.35 2H3.15ZM0.5 2.65C0.5 1.19022 1.69022 0 3.15 0H16.35C17.8098 0 19 1.19022 19 2.65V12.55C19 14.0098 17.8098 15.2 16.35 15.2H3.15C1.69022 15.2 0.5 14.0098 0.5 12.55V2.65Z" fill="white"/>
<path fill-rule="evenodd" clip-rule="evenodd" d="M0.680732 2.07653C0.997446 1.62408 1.62098 1.51404 2.07343 1.83076L9.74996 7.20433L17.4265 1.83076C17.879 1.51404 18.5025 1.62408 18.8192 2.07653C19.1359 2.52898 19.0259 3.15251 18.5734 3.46922L10.3234 9.24422C9.97911 9.48524 9.52082 9.48524 9.1765 9.24422L0.926501 3.46922C0.474052 3.15251 0.364017 2.52898 0.680732 2.07653Z" fill="white"/>
</svg>
