<svg width="18" height="18" viewBox="0 0 18 18" fill="none" xmlns="http://www.w3.org/2000/svg">
<path fill-rule="evenodd" clip-rule="evenodd" d="M5.12512 1.24982C3.12309 1.24982 1.50012 2.87278 1.50012 4.87482V13.1248C1.50012 15.1268 3.12309 16.7498 5.12512 16.7498H13.3751C15.3772 16.7498 17.0001 15.1268 17.0001 13.1248V4.87482C17.0001 2.87278 15.3772 1.24982 13.3751 1.24982H5.12512ZM0.500122 4.87482C0.500122 2.3205 2.5708 0.249817 5.12512 0.249817H13.3751C15.9294 0.249817 18.0001 2.3205 18.0001 4.87482V13.1248C18.0001 15.6791 15.9294 17.7498 13.3751 17.7498H5.12512C2.5708 17.7498 0.500122 15.6791 0.500122 13.1248V4.87482Z" fill="white"/>
<path fill-rule="evenodd" clip-rule="evenodd" d="M9.69534 6.1949C9.11277 6.10851 8.51779 6.20802 7.99503 6.47927C7.47227 6.75052 7.04835 7.1797 6.78357 7.70576C6.51878 8.23183 6.42662 8.82799 6.52018 9.40945C6.61375 9.99091 6.88828 10.5281 7.30472 10.9445C7.72117 11.361 8.25832 11.6355 8.83979 11.7291C9.42125 11.8226 10.0174 11.7305 10.5435 11.4657C11.0695 11.2009 11.4987 10.777 11.77 10.2542C12.0412 9.73145 12.1407 9.13647 12.0543 8.5539C11.9662 7.95966 11.6893 7.40951 11.2645 6.98472C10.8397 6.55993 10.2896 6.28302 9.69534 6.1949ZM7.53446 5.59165C8.24391 5.22352 9.05139 5.08848 9.84202 5.20572C10.6485 5.32531 11.3951 5.70111 11.9716 6.27761C12.5481 6.85411 12.9239 7.60074 13.0435 8.40722C13.1608 9.19785 13.0257 10.0053 12.6576 10.7148C12.2895 11.4242 11.707 11.9996 10.9931 12.3589C10.2791 12.7183 9.47005 12.8433 8.68092 12.7164C7.89179 12.5894 7.16279 12.2168 6.59762 11.6516C6.03244 11.0864 5.65987 10.3574 5.53288 9.56832C5.4059 8.77919 5.53098 7.97012 5.89033 7.25617C6.24968 6.54223 6.825 5.95977 7.53446 5.59165Z" fill="white"/>
<path fill-rule="evenodd" clip-rule="evenodd" d="M13.2869 4.46265C13.2869 4.1865 13.5107 3.96265 13.7869 3.96265H13.7956C14.0717 3.96265 14.2956 4.1865 14.2956 4.46265C14.2956 4.73879 14.0717 4.96265 13.7956 4.96265H13.7869C13.5107 4.96265 13.2869 4.73879 13.2869 4.46265Z" fill="white"/>
</svg>
