<svg width="22" height="20" viewBox="0 0 22 20" fill="none" xmlns="http://www.w3.org/2000/svg">
<path fill-rule="evenodd" clip-rule="evenodd" d="M10.2947 2C6.13555 2 2.85614 5.18363 2.85614 9C2.85614 12.8164 6.13555 16 10.2947 16C14.4539 16 17.7333 12.8164 17.7333 9C17.7333 5.18363 14.4539 2 10.2947 2ZM0.85614 9C0.85614 3.97982 5.1329 0 10.2947 0C15.4565 0 19.7333 3.97982 19.7333 9C19.7333 14.0202 15.4565 18 10.2947 18C5.1329 18 0.85614 14.0202 0.85614 9Z" fill="white"/>
<path fill-rule="evenodd" clip-rule="evenodd" d="M15.5287 13.9619C15.9087 13.5611 16.5416 13.5442 16.9424 13.9242L21.5309 18.2742C21.9317 18.6542 21.9486 19.2871 21.5686 19.6879C21.1886 20.0887 20.5557 20.1056 20.1549 19.7256L15.5664 15.3756C15.1656 14.9956 15.1487 14.3627 15.5287 13.9619Z" fill="white"/>
</svg>
