<svg width="16" height="16" viewBox="0 0 16 16" fill="none" xmlns="http://www.w3.org/2000/svg">
<path d="M16 5.26325C16 2.72869 13.938 0.666687 11.4034 0.666687H4.59656C2.062 0.666718 0 2.72872 0 5.26328C0 6.01172 0.608906 6.62062 1.35734 6.62062H2.65297L1.71491 8.74494C1.38341 9.49569 1.21531 10.2925 1.21531 11.1132V11.9836C1.21531 12.9207 1.97769 13.6831 2.91478 13.6831H13.085C14.0221 13.6831 14.7845 12.9207 14.7845 11.9836V11.1132C14.7845 10.2924 14.6164 9.49569 14.2848 8.74494L13.3468 6.62062H14.6426C15.3911 6.62059 16 6.01172 16 5.26325ZM4.59656 1.71469H11.4034V1.71472C12.8795 1.71472 14.1477 2.62072 14.6818 3.90572H11.6619C11.4038 3.63856 11.0422 3.47194 10.6423 3.47194H5.35769C4.95703 3.47194 4.59491 3.63922 4.33669 3.90722C4.32662 3.90666 4.31666 3.90569 4.30647 3.90569H1.31819C1.85225 2.62066 3.12053 1.71469 4.59656 1.71469ZM1.35734 5.57256C1.18678 5.57256 1.04803 5.43384 1.04803 5.26325C1.04803 5.15897 1.05281 5.05578 1.06169 4.95375H3.93922V5.35822C3.93922 5.47641 3.84303 5.57253 3.72487 5.57253H1.35734V5.57256ZM13.7365 11.1131V11.9835C13.7365 12.3427 13.4443 12.6349 13.085 12.6349H2.91478C2.55559 12.6349 2.26334 12.3427 2.26334 11.9835V11.1131C2.26334 10.4391 2.40138 9.78475 2.67362 9.16822L3.79972 6.61819C4.46109 6.57931 4.98728 6.02916 4.98728 5.35825V4.8905C4.98728 4.68622 5.15347 4.52003 5.35772 4.52003H10.6423C10.8466 4.52003 11.0127 4.68622 11.0127 4.8905V5.35825C11.0127 6.02909 11.5387 6.57922 12.2 6.61819L13.3261 9.16828C13.5984 9.78475 13.7365 10.4391 13.7365 11.1131ZM12.2752 5.57259V5.57256C12.157 5.57256 12.0608 5.47644 12.0608 5.35825V4.95378H14.9383C14.9472 5.05581 14.952 5.159 14.952 5.26331C14.952 5.43387 14.8133 5.57262 14.6427 5.57262H12.2752V5.57259Z" fill="white"/>
<path d="M6.17008 8.55769C6.49027 8.55769 6.74983 8.29813 6.74983 7.97794C6.74983 7.65776 6.49027 7.39819 6.17008 7.39819C5.84989 7.39819 5.59033 7.65776 5.59033 7.97794C5.59033 8.29813 5.84989 8.55769 6.17008 8.55769Z" fill="white"/>
<path d="M8.00004 8.55769C8.32022 8.55769 8.57978 8.29813 8.57978 7.97794C8.57978 7.65776 8.32022 7.39819 8.00004 7.39819C7.67985 7.39819 7.42029 7.65776 7.42029 7.97794C7.42029 8.29813 7.67985 8.55769 8.00004 8.55769Z" fill="white"/>
<path d="M9.82987 8.55769C10.1501 8.55769 10.4096 8.29813 10.4096 7.97794C10.4096 7.65776 10.1501 7.39819 9.82987 7.39819C9.50969 7.39819 9.25012 7.65776 9.25012 7.97794C9.25012 8.29813 9.50969 8.55769 9.82987 8.55769Z" fill="white"/>
<path d="M6.17008 10.3199C6.49027 10.3199 6.74983 10.0603 6.74983 9.74015C6.74983 9.41996 6.49027 9.1604 6.17008 9.1604C5.84989 9.1604 5.59033 9.41996 5.59033 9.74015C5.59033 10.0603 5.84989 10.3199 6.17008 10.3199Z" fill="white"/>
<path d="M8.00004 10.3199C8.32022 10.3199 8.57978 10.0603 8.57978 9.74015C8.57978 9.41996 8.32022 9.1604 8.00004 9.1604C7.67985 9.1604 7.42029 9.41996 7.42029 9.74015C7.42029 10.0603 7.67985 10.3199 8.00004 10.3199Z" fill="white"/>
<path d="M9.82987 10.3199C10.1501 10.3199 10.4096 10.0603 10.4096 9.74015C10.4096 9.41996 10.1501 9.1604 9.82987 9.1604C9.50969 9.1604 9.25012 9.41996 9.25012 9.74015C9.25012 10.0603 9.50969 10.3199 9.82987 10.3199Z" fill="white"/>
<path d="M6.17008 12.0819C6.49027 12.0819 6.74983 11.8223 6.74983 11.5021C6.74983 11.1819 6.49027 10.9224 6.17008 10.9224C5.84989 10.9224 5.59033 11.1819 5.59033 11.5021C5.59033 11.8223 5.84989 12.0819 6.17008 12.0819Z" fill="white"/>
<path d="M8.00004 12.0819C8.32022 12.0819 8.57978 11.8223 8.57978 11.5021C8.57978 11.1819 8.32022 10.9224 8.00004 10.9224C7.67985 10.9224 7.42029 11.1819 7.42029 11.5021C7.42029 11.8223 7.67985 12.0819 8.00004 12.0819Z" fill="white"/>
<path d="M9.82987 12.0819C10.1501 12.0819 10.4096 11.8223 10.4096 11.5021C10.4096 11.1819 10.1501 10.9224 9.82987 10.9224C9.50969 10.9224 9.25012 11.1819 9.25012 11.5021C9.25012 11.8223 9.50969 12.0819 9.82987 12.0819Z" fill="white"/>
</svg>
