<svg width="20" height="17" viewBox="0 0 20 17" fill="none" xmlns="http://www.w3.org/2000/svg">
<path fill-rule="evenodd" clip-rule="evenodd" d="M12.1245 1.17574C12.9275 0.86923 13.8053 0.816747 14.6392 1.02539C15.3642 1.20681 16.0256 1.57803 16.5567 2.0982C17.3233 1.83688 18.0491 1.46707 18.7118 0.999617L19 1.4082L19.4858 1.52651C19.2046 2.6813 18.6289 3.74187 17.8169 4.60573C17.8384 4.77592 17.8495 4.94734 17.85 5.11905L17.85 5.1207C17.85 10.0394 15.4878 13.6176 12.1193 15.4105C8.76299 17.1969 4.45796 17.1846 0.607206 15.0453C0.4048 14.9328 0.306077 14.6961 0.368602 14.4732C0.431126 14.2502 0.638539 14.0994 0.869899 14.1086C2.51889 14.1742 4.1489 13.7902 5.58831 13.0056C4.11321 12.2058 3.09891 11.2208 2.42566 10.1578C1.6344 8.90838 1.33324 7.58153 1.27867 6.3809C1.22419 5.18247 1.41467 4.09952 1.61634 3.31973C1.71748 2.92866 1.82226 2.61069 1.90252 2.38869C1.94268 2.2776 1.97679 2.19031 2.00136 2.12966C2.01365 2.09932 2.02356 2.07563 2.03067 2.05892L2.03916 2.03916L2.04089 2.03521C2.04823 2.01819 2.05657 2.00147 2.06591 1.98513L2.50003 2.2332L2.90921 1.94584C3.69533 3.06524 4.74609 3.97284 5.96791 4.58783C7.04444 5.12968 8.22433 5.42955 9.42503 5.46894V5.1487C9.41423 4.29041 9.66692 3.44941 10.1491 2.73919C10.6318 2.02801 11.3214 1.48225 12.1245 1.17574ZM2.66946 3.26172C2.64139 3.35761 2.61281 3.46062 2.58449 3.57011C2.39944 4.28562 2.22899 5.26518 2.27764 6.33549C2.32619 7.40362 2.59222 8.55176 3.27048 9.6227C3.94673 10.6905 5.0518 11.7118 6.8281 12.5013C6.994 12.575 7.1069 12.7329 7.12305 12.9137C7.13919 13.0946 7.05605 13.2699 6.90584 13.3719C5.6842 14.2011 4.30286 14.7478 2.86162 14.9834C5.92693 16.1103 9.10632 15.8814 11.6495 14.5278C14.6746 12.9176 16.8499 9.68974 16.85 5.12125C16.8493 4.92277 16.8302 4.72478 16.7929 4.52982C16.7616 4.36589 16.8141 4.19714 16.9329 4.07995C17.3851 3.63399 17.7598 3.11979 18.0447 2.55877C17.566 2.7969 17.0673 2.99456 16.5537 3.14921C16.3654 3.20592 16.1613 3.14696 16.0323 2.99857C15.6026 2.50455 15.0316 2.1544 14.3965 1.99548C13.7613 1.83656 13.0927 1.87654 12.481 2.11C11.8694 2.34347 11.3441 2.75915 10.9764 3.30084C10.6087 3.84253 10.4162 4.48409 10.425 5.13875L10.4251 5.14545H10.425V5.97045C10.425 6.24154 10.209 6.46325 9.93799 6.47028C8.40573 6.51001 6.88743 6.17018 5.51831 5.48106C4.43003 4.93329 3.46286 4.17835 2.66946 3.26172ZM2.95713 2.43582C2.9572 2.43567 2.95721 2.43564 2.95718 2.43571L2.95713 2.43582Z" fill="white"/>
</svg>
