<svg width="45" height="44" viewBox="0 0 45 44" fill="none" xmlns="http://www.w3.org/2000/svg">
<path opacity="0.8" fill-rule="evenodd" clip-rule="evenodd" d="M22.5 42.6463C34.4031 42.6463 44 33.2949 44 21.8231C44 10.3514 34.4031 1 22.5 1C10.5969 1 1 10.3514 1 21.8231C1 33.2949 10.5969 42.6463 22.5 42.6463ZM22.5 43.6463C34.9264 43.6463 45 33.8757 45 21.8231C45 9.77055 34.9264 0 22.5 0C10.0736 0 0 9.77055 0 21.8231C0 33.8757 10.0736 43.6463 22.5 43.6463Z" fill="#FF4D64"/>
<path d="M33.2596 21.5913C33.5904 21.7843 33.5904 22.2622 33.2596 22.4551L16.752 32.0843C16.4186 32.2787 16 32.0383 16 31.6524L16 12.3941C16 12.0082 16.4186 11.7677 16.752 11.9622L33.2596 21.5913Z" fill="#FF4D64"/>
</svg>
