<svg width="95" height="42" viewBox="0 0 95 42" fill="none" xmlns="http://www.w3.org/2000/svg">
<path d="M6.9 29H10.02V10.79H16.68V8.15H0.24V10.79H6.9V29ZM21.0916 18.638C21.4583 18.022 21.9423 17.5453 22.5436 17.208C23.1596 16.856 23.8856 16.68 24.7216 16.68V19.276H24.0836C23.1009 19.276 22.3529 19.5253 21.8396 20.024C21.3409 20.5227 21.0916 21.388 21.0916 22.62V29H18.5836V16.878H21.0916V18.638ZM26.191 22.884C26.191 21.6667 26.4403 20.5887 26.939 19.65C27.4523 18.7113 28.1416 17.9853 29.007 17.472C29.887 16.944 30.855 16.68 31.911 16.68C32.8643 16.68 33.693 16.8707 34.397 17.252C35.1156 17.6187 35.6876 18.0807 36.113 18.638V16.878H38.643V29H36.113V27.196C35.6876 27.768 35.1083 28.2447 34.375 28.626C33.6416 29.0073 32.8056 29.198 31.867 29.198C30.8256 29.198 29.8723 28.934 29.007 28.406C28.1416 27.8633 27.4523 27.1153 26.939 26.162C26.4403 25.194 26.191 24.1013 26.191 22.884ZM36.113 22.928C36.113 22.092 35.937 21.366 35.585 20.75C35.2476 20.134 34.8003 19.6647 34.243 19.342C33.6856 19.0193 33.0843 18.858 32.439 18.858C31.7936 18.858 31.1923 19.0193 30.635 19.342C30.0776 19.65 29.623 20.112 29.271 20.728C28.9336 21.3293 28.765 22.048 28.765 22.884C28.765 23.72 28.9336 24.4533 29.271 25.084C29.623 25.7147 30.0776 26.1987 30.635 26.536C31.207 26.8587 31.8083 27.02 32.439 27.02C33.0843 27.02 33.6856 26.8587 34.243 26.536C34.8003 26.2133 35.2476 25.744 35.585 25.128C35.937 24.4973 36.113 23.764 36.113 22.928ZM46.6231 26.756L50.0551 16.878H52.7171L48.0971 29H45.1051L40.5071 16.878H43.1911L46.6231 26.756ZM65.7229 22.642C65.7229 23.0967 65.6936 23.5073 65.6349 23.874H56.3729C56.4462 24.842 56.8056 25.6193 57.4509 26.206C58.0962 26.7927 58.8882 27.086 59.8269 27.086C61.1762 27.086 62.1296 26.5213 62.6869 25.392H65.3929C65.0262 26.5067 64.3589 27.4233 63.3909 28.142C62.4376 28.846 61.2496 29.198 59.8269 29.198C58.6682 29.198 57.6269 28.9413 56.7029 28.428C55.7936 27.9 55.0749 27.1667 54.5469 26.228C54.0336 25.2747 53.7769 24.1747 53.7769 22.928C53.7769 21.6813 54.0262 20.5887 54.5249 19.65C55.0382 18.6967 55.7496 17.9633 56.6589 17.45C57.5829 16.9367 58.6389 16.68 59.8269 16.68C60.9709 16.68 61.9902 16.9293 62.8849 17.428C63.7796 17.9267 64.4762 18.6307 64.9749 19.54C65.4736 20.4347 65.7229 21.4687 65.7229 22.642ZM63.1049 21.85C63.0902 20.926 62.7602 20.1853 62.1149 19.628C61.4696 19.0707 60.6702 18.792 59.7169 18.792C58.8516 18.792 58.1109 19.0707 57.4949 19.628C56.8789 20.1707 56.5122 20.9113 56.3949 21.85H63.1049ZM70.699 12.72V29H68.191V12.72H70.699ZM85.1018 22.642C85.1018 23.0967 85.0725 23.5073 85.0138 23.874H75.7518C75.8251 24.842 76.1845 25.6193 76.8298 26.206C77.4751 26.7927 78.2671 27.086 79.2058 27.086C80.5551 27.086 81.5085 26.5213 82.0658 25.392H84.7718C84.4051 26.5067 83.7378 27.4233 82.7698 28.142C81.8165 28.846 80.6285 29.198 79.2058 29.198C78.0471 29.198 77.0058 28.9413 76.0818 28.428C75.1725 27.9 74.4538 27.1667 73.9258 26.228C73.4125 25.2747 73.1558 24.1747 73.1558 22.928C73.1558 21.6813 73.4051 20.5887 73.9038 19.65C74.4171 18.6967 75.1285 17.9633 76.0378 17.45C76.9618 16.9367 78.0178 16.68 79.2058 16.68C80.3498 16.68 81.3691 16.9293 82.2638 17.428C83.1585 17.9267 83.8551 18.6307 84.3538 19.54C84.8525 20.4347 85.1018 21.4687 85.1018 22.642ZM82.4838 21.85C82.4691 20.926 82.1391 20.1853 81.4938 19.628C80.8485 19.0707 80.0491 18.792 79.0958 18.792C78.2305 18.792 77.4898 19.0707 76.8738 19.628C76.2578 20.1707 75.8911 20.9113 75.7738 21.85H82.4838ZM90.0779 18.638C90.4446 18.022 90.9286 17.5453 91.5299 17.208C92.1459 16.856 92.8719 16.68 93.7079 16.68V19.276H93.0699C92.0873 19.276 91.3393 19.5253 90.8259 20.024C90.3273 20.5227 90.0779 21.388 90.0779 22.62V29H87.5699V16.878H90.0779V18.638Z" fill="url(#paint0_linear_1_366)"/>
<path d="M22.9515 13.4365C22.9507 13.4369 22.9499 13.4371 22.949 13.4376C22.6348 13.5773 22.4984 13.9 22.6358 14.1792C22.7736 14.4594 23.1401 14.6016 23.4773 14.5057L32.9833 11.8004L31.2058 14.2832C31.0767 14.4636 31.104 14.6954 31.2726 14.8502C31.4412 15.0049 31.7097 15.0445 31.9293 14.9469L33.7933 14.1184C33.8468 14.0946 33.8954 14.0635 33.9372 14.0261L39.4594 9.09205L46.2745 6.05039C48.8556 4.86027 48.5566 3.94541 48.4035 3.69344C48.2849 3.49806 48.0195 3.23608 47.43 3.09755C46.832 2.95701 46.0241 2.96822 44.9606 3.13185C44.6056 3.18643 44.4096 3.18183 44.2021 3.17695C43.4726 3.15987 42.9777 3.20171 40.5208 4.29374L27.0827 10.267L21.8714 7.95364C21.6749 7.86643 21.4411 7.86649 21.2446 7.95391L20.3664 8.34428C20.1857 8.42462 20.0566 8.57002 20.0146 8.74052C19.9726 8.91108 20.0222 9.08871 20.1497 9.2245L23.7667 13.0781L22.9515 13.4365Z" fill="#21D696"/>
<defs>
<linearGradient id="paint0_linear_1_366" x1="95" y1="20.3636" x2="3.08442" y2="20.3636" gradientUnits="userSpaceOnUse">
<stop stop-color="#FF4C64"/>
<stop offset="1" stop-color="#FF1A39"/>
</linearGradient>
</defs>
</svg>
